<svg width="228" height="39" viewBox="0 0 228 39" fill="none" xmlns="http://www.w3.org/2000/svg">
<path d="M79.1005 37.0521C78.9582 37.1233 78.7209 37.2419 78.4125 37.3605C78.1041 37.5029 77.7482 37.6215 77.3449 37.7401C76.9415 37.8587 76.4908 37.9774 75.9925 38.0485C75.518 38.1197 75.0198 38.1672 74.5216 38.1672C73.6912 38.1672 72.932 38.0723 72.2915 37.9062C71.6272 37.7164 71.0815 37.4317 70.6307 37.0521C70.1799 36.6488 69.8241 36.1268 69.5868 35.4862C69.3496 34.8457 69.2309 34.039 69.2309 33.1138C69.2309 32.7104 69.2547 32.2122 69.3258 31.6665C69.3733 31.1209 69.4682 30.4566 69.5631 29.7211C69.2309 31.2632 68.709 32.5681 67.9735 33.6357C67.238 34.7033 66.3602 35.5811 65.3638 36.2454C64.3436 36.9097 63.2285 37.408 61.9711 37.7164C60.7374 38.0248 59.4563 38.1672 58.1277 38.1672C56.6567 38.1672 55.3756 38.0011 54.2368 37.6452C53.098 37.2893 52.1253 36.8148 51.3661 36.1743C50.5831 35.5337 49.99 34.7745 49.5867 33.873C49.1834 32.9714 48.9698 31.975 48.9698 30.8599C48.9698 29.7685 49.2071 28.7958 49.6579 27.9892C50.1086 27.1825 50.7729 26.4708 51.6033 25.9014C52.4337 25.3083 53.4301 24.8338 54.6164 24.4779C55.7789 24.0983 57.0838 23.8136 58.4835 23.6238C59.907 23.4103 61.4254 23.2679 63.0387 23.1967C64.652 23.1256 66.3365 23.0781 68.0921 23.0781V21.3462C68.0921 20.6107 67.9972 19.9227 67.7837 19.3058C67.5702 18.689 67.2618 18.1671 66.811 17.7163C66.3602 17.2655 65.7671 16.9334 65.0553 16.6724C64.3436 16.4351 63.4658 16.2928 62.4219 16.2928C61.7101 16.2928 61.0458 16.364 60.3815 16.53C59.7172 16.6961 59.1241 16.9571 58.5784 17.313C58.0328 17.6688 57.582 18.1196 57.2024 18.6653C56.8228 19.2109 56.5618 19.8515 56.4195 20.6107L50.4882 19.5431C50.7729 18.3094 51.2474 17.1943 51.9117 16.1742C52.576 15.154 53.4064 14.2999 54.4503 13.5881C55.4942 12.8764 56.7279 12.307 58.1751 11.9037C59.6223 11.5003 61.2594 11.3105 63.1336 11.3105C67.3567 11.3105 70.5121 12.2358 72.5287 14.0864C74.569 15.9369 75.5892 18.7839 75.5892 22.6273V31.453C75.5892 32.2359 75.7078 32.8053 75.9451 33.1612C76.1823 33.5408 76.5857 33.7069 77.1551 33.7069C77.5584 33.7069 77.9143 33.6594 78.2701 33.5645C78.626 33.4696 78.887 33.3985 79.0768 33.3036V37.0521H79.1005ZM68.0921 26.3759C66.4314 26.4233 64.913 26.5182 63.5132 26.6369C62.1135 26.7555 60.9035 26.969 59.8833 27.2537C58.8631 27.5384 58.0565 27.9654 57.4871 28.4874C56.9177 29.0093 56.633 29.6974 56.633 30.5515C56.633 30.9785 56.7042 31.3818 56.8465 31.7377C56.9889 32.1173 57.2261 32.4257 57.5583 32.7104C57.8667 32.9951 58.2937 33.2087 58.8157 33.3747C59.3376 33.5408 59.9782 33.612 60.7137 33.612C61.7101 33.612 62.6591 33.4222 63.5607 33.0189C64.4622 32.6155 65.2451 32.0936 65.9094 31.453C66.5737 30.8124 67.0957 30.0532 67.499 29.2229C67.9023 28.3688 68.0921 27.5147 68.0921 26.6369V26.3759Z" fill="black"/>
<path d="M102.468 28.5463L107.901 30.8239C107.498 31.844 106.952 32.793 106.217 33.6946C105.505 34.5961 104.627 35.3791 103.583 36.0434C102.539 36.7077 101.353 37.2296 100.025 37.6092C98.6723 37.9888 97.1776 38.1786 95.5406 38.1786C93.4291 38.1786 91.4836 37.8702 89.728 37.2771C87.9723 36.6839 86.4777 35.8061 85.2202 34.6673C83.9628 33.5285 82.9901 32.105 82.3021 30.468C81.6141 28.8073 81.2582 26.933 81.2582 24.7977C81.2582 22.6625 81.5903 20.7645 82.2546 19.08C82.9189 17.3956 83.8679 15.9958 85.0779 14.857C86.2879 13.7182 87.7588 12.8404 89.467 12.2473C91.1752 11.6541 93.0969 11.3457 95.1847 11.3457C96.8692 11.3457 98.4587 11.583 99.9297 12.0812C101.401 12.5557 102.706 13.2437 103.821 14.1452C104.936 15.0468 105.861 16.1381 106.549 17.4193C107.237 18.7242 107.664 20.1714 107.783 21.8084L101.78 23.0895L101.519 22.9946C101.329 21.0255 100.713 19.5071 99.6924 18.4157C98.6723 17.3244 97.2251 16.8024 95.3982 16.8024C94.4255 16.8024 93.524 16.9922 92.741 17.3481C91.9581 17.704 91.2938 18.2259 90.7244 18.914C90.1788 19.602 89.7517 20.4324 89.467 21.4051C89.1823 22.3778 89.0162 23.5166 89.0162 24.7503C89.0162 26.1263 89.1823 27.3126 89.4907 28.3328C89.7991 29.3529 90.2737 30.1833 90.8668 30.8239C91.4599 31.4882 92.1716 31.9627 93.0257 32.2948C93.8798 32.6032 94.8288 32.7693 95.8965 32.7693C97.4149 32.7693 98.7434 32.3897 99.8348 31.6542C100.926 30.9188 101.733 29.8749 102.255 28.5937L102.468 28.5463Z" fill="black"/>
<path d="M131.507 28.5463L136.94 30.8239C136.537 31.844 135.991 32.793 135.256 33.6946C134.544 34.5961 133.666 35.3791 132.622 36.0434C131.578 36.7077 130.392 37.2296 129.064 37.6092C127.711 37.9888 126.217 38.1786 124.58 38.1786C122.468 38.1786 120.523 37.8702 118.767 37.2771C117.011 36.6839 115.517 35.8061 114.259 34.6673C113.002 33.5285 112.029 32.105 111.341 30.468C110.653 28.8073 110.297 26.933 110.297 24.7977C110.297 22.6625 110.629 20.7645 111.294 19.08C111.958 17.3956 112.907 15.9958 114.117 14.857C115.327 13.7182 116.798 12.8404 118.506 12.2473C120.214 11.6541 122.136 11.3457 124.224 11.3457C125.908 11.3457 127.498 11.583 128.969 12.0812C130.44 12.5557 131.744 13.2437 132.86 14.1452C133.975 15.0468 134.9 16.1381 135.588 17.4193C136.276 18.7242 136.703 20.1714 136.822 21.8084L130.819 23.0895L130.558 22.9946C130.368 21.0255 129.752 19.5071 128.731 18.4157C127.711 17.3244 126.264 16.8024 124.437 16.8024C123.464 16.8024 122.563 16.9922 121.78 17.3481C120.997 17.704 120.333 18.2259 119.763 18.914C119.218 19.602 118.791 20.4324 118.506 21.4051C118.221 22.3778 118.055 23.5166 118.055 24.7503C118.055 26.1263 118.221 27.3126 118.53 28.3328C118.838 29.3529 119.313 30.1833 119.906 30.8239C120.499 31.4882 121.211 31.9627 122.065 32.2948C122.919 32.6032 123.868 32.7693 124.935 32.7693C126.454 32.7693 127.782 32.3897 128.874 31.6542C129.965 30.9188 130.772 29.8749 131.294 28.5937L131.507 28.5463Z" fill="black"/>
<path d="M141.733 37.3957V12.1524H147.095L148.566 18.2259C148.827 17.2769 149.254 16.3754 149.823 15.545C150.393 14.7146 151.081 13.9792 151.888 13.3623C152.694 12.7455 153.572 12.2473 154.521 11.8914C155.47 11.5355 156.49 11.3457 157.534 11.3457C159.005 11.3457 160.262 11.5355 161.33 11.9151C162.374 12.2947 163.252 12.8166 163.94 13.4572C164.628 14.0978 165.174 14.857 165.553 15.7111C165.933 16.5652 166.194 17.4905 166.36 18.4395C166.526 19.3885 166.573 20.3849 166.526 21.4288C166.478 22.449 166.36 23.4454 166.217 24.3944L160.31 24.9875C160.357 23.8487 160.357 22.8048 160.286 21.8084C160.215 20.8119 160.049 19.9816 159.717 19.2698C159.408 18.5581 158.91 17.9887 158.27 17.5854C157.629 17.182 156.727 16.9685 155.589 16.9685C154.497 16.9685 153.572 17.2532 152.765 17.7989C151.959 18.3683 151.318 19.08 150.796 19.9579C150.274 20.8357 149.895 21.8084 149.634 22.8523C149.373 23.9199 149.254 24.9401 149.254 25.9365V37.3957H141.733Z" fill="black"/>
<path d="M190.063 28.7484L195.235 30.8124C193.93 33.1612 192.293 34.9643 190.277 36.2454C188.284 37.5266 185.84 38.1672 182.97 38.1672C180.55 38.1672 178.438 37.835 176.611 37.1944C174.784 36.5539 173.266 35.6286 172.032 34.4424C170.799 33.2561 169.897 31.8563 169.28 30.1956C168.663 28.5348 168.355 26.708 168.355 24.6914C168.355 22.6748 168.663 20.848 169.257 19.1872C169.85 17.5265 170.751 16.1267 171.937 14.9642C173.124 13.8017 174.595 12.9001 176.35 12.2595C178.106 11.619 180.17 11.3105 182.519 11.3105C184.63 11.3105 186.528 11.619 188.165 12.2358C189.826 12.8527 191.202 13.7542 192.341 14.9167C193.48 16.0793 194.357 17.479 194.951 19.0923C195.544 20.7293 195.852 22.5324 195.852 24.5491V26.1386H175.425C175.472 27.23 175.686 28.2264 176.089 29.0805C176.493 29.9583 177.015 30.6938 177.679 31.2869C178.343 31.8801 179.126 32.3546 180.051 32.663C180.977 32.9714 181.973 33.1375 183.064 33.1375C184.607 33.1375 185.959 32.7816 187.145 32.0699C188.331 31.3581 189.233 30.243 189.85 28.7009H190.063V28.7484ZM188.711 22.2477C188.687 21.3225 188.521 20.4446 188.236 19.6854C187.952 18.9025 187.548 18.2382 187.027 17.6926C186.505 17.1469 185.84 16.7198 185.057 16.4114C184.274 16.103 183.373 15.9606 182.329 15.9606C181.333 15.9606 180.431 16.1267 179.601 16.4351C178.794 16.7436 178.082 17.1706 177.489 17.74C176.896 18.3094 176.421 18.9737 176.066 19.7329C175.71 20.5158 175.496 21.3462 175.449 22.2715H188.711V22.2477Z" fill="black"/>
<path d="M221.307 37.3887L220.216 32.5013C219.813 33.3317 219.291 34.0909 218.626 34.7789C217.962 35.4669 217.179 36.0601 216.301 36.582C215.424 37.0802 214.451 37.4836 213.383 37.7683C212.316 38.053 211.177 38.1953 209.991 38.1953C208.211 38.1953 206.622 37.8632 205.174 37.2226C203.727 36.582 202.494 35.6567 201.473 34.4942C200.453 33.3317 199.67 31.9082 199.101 30.2712C198.531 28.6104 198.271 26.7836 198.271 24.767C198.271 22.6792 198.555 20.8049 199.101 19.1442C199.67 17.4834 200.453 16.0837 201.473 14.9212C202.494 13.7586 203.727 12.8808 205.174 12.264C206.622 11.6471 208.259 11.3387 210.038 11.3387C211.224 11.3387 212.339 11.481 213.36 11.742C214.38 12.003 215.281 12.3589 216.064 12.8096C216.871 13.2604 217.535 13.7586 218.128 14.3518C218.698 14.9449 219.148 15.538 219.481 16.1786V1.80127H227.001V37.3887H221.307ZM219.481 24.7907C219.481 23.391 219.291 22.181 218.935 21.1608C218.579 20.1406 218.081 19.3103 217.464 18.6697C216.847 18.0054 216.135 17.5309 215.305 17.2225C214.475 16.914 213.621 16.7717 212.719 16.7717C211.746 16.7717 210.821 16.9378 210.014 17.2462C209.184 17.5546 208.496 18.0291 207.903 18.6934C207.31 19.334 206.859 20.1644 206.527 21.1608C206.195 22.1573 206.029 23.3672 206.029 24.7433C206.029 26.0719 206.195 27.2344 206.503 28.2308C206.811 29.2273 207.286 30.0577 207.855 30.722C208.449 31.3863 209.137 31.9082 209.967 32.2404C210.797 32.5725 211.699 32.7386 212.695 32.7386C213.692 32.7386 214.617 32.5725 215.447 32.2166C216.278 31.8608 216.989 31.3625 217.583 30.6982C218.176 30.0339 218.626 29.2036 218.959 28.2071C219.315 27.2107 219.481 26.0719 219.481 24.7907Z" fill="black"/>
<path d="M42.7761 11.2432C41.8508 8.94185 40.4985 7.02013 38.7665 5.47801C37.0109 3.93589 34.8757 2.77337 32.3608 1.99045C29.846 1.20752 26.999 0.804199 23.8436 0.804199H9.98821C9.11039 0.804199 8.42236 1.51595 8.42236 2.37004V36.6051C8.42236 37.4829 9.13411 38.171 9.98821 38.171H23.4165C26.5957 38.171 29.4664 37.8151 32.0287 37.0796C34.591 36.3441 36.7737 35.2053 38.5767 33.6632C40.3798 32.1211 41.7559 30.1519 42.7286 27.7794C43.7013 25.4069 44.1758 22.56 44.1758 19.2385C44.1758 16.2017 43.7013 13.5445 42.7761 11.2432Z" fill="black"/>
<path d="M31.4355 17.6681C30.961 17.1461 30.3679 16.7191 29.8222 16.2446C29.5613 16.031 29.324 15.7938 29.063 15.5803C28.8732 15.4379 28.8258 15.2481 28.897 15.0109C29.063 14.3466 29.2291 13.6823 29.3952 12.9943C29.5613 12.33 29.6799 11.6419 29.5375 10.9539C29.3003 9.86257 28.4225 9.10337 27.1413 8.93729C26.5482 8.86612 25.9551 8.8424 25.3619 8.79495C25.101 8.77122 24.84 8.7475 24.579 8.7475C24.152 8.7475 23.8673 8.53397 23.7249 8.13065C23.464 7.4189 23.203 6.73088 22.8946 6.01913C22.7759 5.7107 22.5861 5.42601 22.3963 5.14131C21.6609 4.12113 20.5221 3.76526 19.3595 4.23976C18.6715 4.52446 18.0784 4.97523 17.4378 5.33111C17.0819 5.54463 16.7261 5.75815 16.3465 5.94795C16.2279 6.01913 16.0143 6.01913 15.872 5.94795C15.5161 5.78188 15.2077 5.56835 14.8518 5.37856C14.1401 4.97523 13.4758 4.50073 12.7166 4.19231C11.6252 3.76526 10.5339 4.14486 9.82212 5.09386C9.3239 5.75815 9.06292 6.54108 8.80195 7.30027C8.7545 7.46635 8.68332 7.6087 8.63587 7.77477C8.4698 8.51025 7.97158 8.7475 7.25983 8.77122C6.54808 8.77122 5.81261 8.8424 5.10086 8.88984C4.81616 8.91357 4.55519 9.00847 4.27049 9.10337C3.10797 9.53042 2.44367 10.598 2.60974 11.8555C2.70464 12.5435 2.89444 13.2078 3.06052 13.8721C3.46384 15.4617 3.53501 15.2481 2.30132 16.2446C2.01662 16.4581 1.73192 16.6716 1.47095 16.9089C0.782923 17.4783 0.213524 18.1663 0 19.0678C0 19.3288 0 19.5661 0 19.827C0.308424 21.1556 1.3286 21.9148 2.32504 22.674C2.60974 22.8876 2.87072 23.1485 3.13169 23.3621C3.32149 23.5044 3.36894 23.6942 3.29777 23.9315C3.13169 24.5958 2.96562 25.26 2.79954 25.9481C2.63347 26.6124 2.51484 27.3004 2.65719 27.9884C2.89444 29.0798 3.77226 29.839 5.05341 30.005C5.64653 30.0762 6.23966 30.0999 6.83278 30.1474C7.09375 30.1711 7.331 30.1948 7.59198 30.1948C8.0902 30.1948 8.35118 30.4321 8.51725 30.8829C8.7545 31.5709 9.01547 32.2352 9.30017 32.8995C10.2017 34.9161 11.7676 35.438 13.6656 34.323C14.1875 34.0145 14.7095 33.6587 15.2077 33.3028C15.8008 32.852 16.3702 32.8757 16.987 33.3028C17.5327 33.7061 18.1021 34.0857 18.6952 34.4179C19.0986 34.6314 19.5493 34.7975 19.9764 34.8686C21.044 35.0347 21.8981 34.5839 22.4438 33.7061C22.8234 33.0655 23.0844 32.3301 23.3928 31.6421C23.464 31.4997 23.5114 31.3574 23.5589 31.1913C23.7487 30.4084 24.2706 30.1711 25.0061 30.1711C25.6941 30.1711 26.3821 30.1474 27.0701 30.0525C28.9681 29.7915 29.8934 28.4629 29.5138 26.5886C29.3952 25.9481 29.1579 25.3312 29.0156 24.7144C28.7546 23.5281 28.6834 23.7417 29.585 22.935C30.0358 22.5317 30.5103 22.1995 30.9848 21.8199C31.1508 21.6776 31.2932 21.5115 31.4355 21.3454C32.432 20.1829 32.4557 18.7831 31.4355 17.6681Z" fill="url(#paint0_linear_94_31)"/>
<path d="M13.4272 21.8202C16.464 18.7834 19.3822 15.8653 22.3241 12.9234C22.9172 12.3302 23.6052 12.0455 24.4356 12.2828C25.8591 12.6624 26.4522 14.3943 25.5507 15.5568C25.432 15.6992 25.3134 15.8178 25.1948 15.9602C21.8733 19.2817 18.5281 22.6269 15.2066 25.9484C14.0678 27.0872 12.9527 27.0872 11.8139 25.9721C10.1769 24.3351 8.51617 22.698 6.87915 21.0373C6.0725 20.2307 5.9776 19.0919 6.61817 18.2615C7.37737 17.2413 8.82459 17.1464 9.77359 18.0717C10.8887 19.163 11.98 20.2781 13.0951 21.3694C13.19 21.4643 13.2849 21.6304 13.4272 21.8202Z" fill="black"/>
<defs>
<linearGradient id="paint0_linear_94_31" x1="-0.0237249" y1="19.4877" x2="32.1981" y2="19.4877" gradientUnits="userSpaceOnUse">
<stop stop-color="#78FFD6"/>
<stop offset="1" stop-color="#A8FF78"/>
</linearGradient>
</defs>
</svg>
