<svg width="25" height="25" viewBox="0 0 25 25" fill="none" xmlns="http://www.w3.org/2000/svg">
<path fill-rule="evenodd" clip-rule="evenodd" d="M15.7303 1.36062C13.9588 -0.453541 11.0412 -0.453541 9.26972 1.36062L8.29809 2.35568L6.90743 2.33911C4.37201 2.30891 2.30891 4.37201 2.33911 6.90743L2.35568 8.29809L1.36062 9.26972C-0.453541 11.0412 -0.453541 13.9588 1.36062 15.7303L2.35568 16.7019L2.33911 18.0926C2.30891 20.628 4.37201 22.6911 6.90743 22.6609L8.29809 22.6443L9.26972 23.6394C11.0412 25.4535 13.9588 25.4535 15.7303 23.6394L16.7019 22.6443L18.0926 22.6609C20.628 22.6911 22.6911 20.628 22.6609 18.0926L22.6443 16.7019L23.6394 15.7303C25.4535 13.9588 25.4535 11.0412 23.6394 9.26972L22.6443 8.29809L22.6609 6.90743C22.6911 4.37201 20.628 2.30891 18.0926 2.33911L16.7019 2.35568L15.7303 1.36062ZM16.1774 10.7087C16.4825 10.4036 16.4825 9.90892 16.1774 9.60382C15.8723 9.29873 15.3777 9.29873 15.0726 9.60382L10.9375 13.7389L9.14618 11.9476C8.84108 11.6425 8.34642 11.6425 8.04132 11.9476C7.73623 12.2527 7.73623 12.7473 8.04132 13.0524L10.3851 15.3962C10.5316 15.5427 10.7303 15.625 10.9375 15.625C11.1447 15.625 11.3434 15.5427 11.4899 15.3962L16.1774 10.7087Z" fill="grey"/>
</svg>
