<svg width="25" height="25" viewBox="0 0 25 25" fill="none" xmlns="http://www.w3.org/2000/svg">
<path fill-rule="evenodd" clip-rule="evenodd" d="M0 2.67857C0 1.19924 1.19924 0 2.67857 0L8.03571 0C9.51505 0 10.7143 1.19924 10.7143 2.67857V8.03571C10.7143 9.51505 9.51505 10.7143 8.03571 10.7143H2.67857C1.19924 10.7143 0 9.51505 0 8.03571L0 2.67857ZM14.2857 2.67857C14.2857 1.19924 15.485 0 16.9643 0L22.3214 0C23.8008 0 25 1.19924 25 2.67857V8.03571C25 9.51505 23.8008 10.7143 22.3214 10.7143H16.9643C15.485 10.7143 14.2857 9.51505 14.2857 8.03571V2.67857ZM0 16.9643C0 15.485 1.19924 14.2857 2.67857 14.2857H8.03571C9.51505 14.2857 10.7143 15.485 10.7143 16.9643V22.3214C10.7143 23.8008 9.51505 25 8.03571 25H2.67857C1.19924 25 0 23.8008 0 22.3214L0 16.9643ZM14.2857 16.9643C14.2857 15.485 15.485 14.2857 16.9643 14.2857H22.3214C23.8008 14.2857 25 15.485 25 16.9643V22.3214C25 23.8008 23.8008 25 22.3214 25H16.9643C15.485 25 14.2857 23.8008 14.2857 22.3214V16.9643Z" fill="grey"/>
</svg>
