<svg width="19" height="25" viewBox="0 0 19 25" fill="none" xmlns="http://www.w3.org/2000/svg">
<path fill-rule="evenodd" clip-rule="evenodd" d="M0.125 3.125C0.125 1.39911 1.52411 0 3.25 0H11.5201C11.9345 0 12.332 0.16462 12.625 0.457646L18.4174 6.25C18.7104 6.54303 18.875 6.94045 18.875 7.35485V21.875C18.875 23.6009 17.4759 25 15.75 25H3.25C1.52411 25 0.125 23.6009 0.125 21.875V3.125ZM11.8438 5.46875V2.34375L16.5312 7.03125H13.4062C12.5433 7.03125 11.8438 6.3317 11.8438 5.46875ZM4.03125 12.5C3.59978 12.5 3.25 12.8498 3.25 13.2812C3.25 13.7127 3.59978 14.0625 4.03125 14.0625H14.9688C15.4002 14.0625 15.75 13.7127 15.75 13.2812C15.75 12.8498 15.4002 12.5 14.9688 12.5H4.03125ZM3.25 16.4062C3.25 15.9748 3.59978 15.625 4.03125 15.625H14.9688C15.4002 15.625 15.75 15.9748 15.75 16.4062C15.75 16.8377 15.4002 17.1875 14.9688 17.1875H4.03125C3.59978 17.1875 3.25 16.8377 3.25 16.4062ZM3.25 19.5312C3.25 19.0998 3.59978 18.75 4.03125 18.75H10.2812C10.7127 18.75 11.0625 19.0998 11.0625 19.5312C11.0625 19.9627 10.7127 20.3125 10.2812 20.3125H4.03125C3.59978 20.3125 3.25 19.9627 3.25 19.5312Z" fill="grey"/>
</svg>
