<svg width="25" height="25" viewBox="0 0 25 25" fill="none" xmlns="http://www.w3.org/2000/svg">
<path fill-rule="evenodd" clip-rule="evenodd" d="M14.6948 1.64123C14.0498 -0.547077 10.9502 -0.547076 10.3052 1.64123L10.1488 2.17192C9.73667 3.57016 8.13961 4.23168 6.8595 3.53439L6.37364 3.26975C4.37019 2.17846 2.17846 4.3702 3.26975 6.37364L3.53439 6.8595C4.23168 8.13962 3.57016 9.73667 2.17192 10.1488L1.64123 10.3052C-0.547077 10.9502 -0.547076 14.0498 1.64123 14.6948L2.17192 14.8512C3.57016 15.2633 4.23168 16.8604 3.53439 18.1405L3.26975 18.6264C2.17846 20.6298 4.37019 22.8215 6.37364 21.7303L6.8595 21.4656C8.13962 20.7683 9.73667 21.4298 10.1488 22.8281L10.3052 23.3588C10.9502 25.5471 14.0498 25.5471 14.6948 23.3588L14.8512 22.8281C15.2633 21.4298 16.8604 20.7683 18.1405 21.4656L18.6264 21.7303C20.6298 22.8215 22.8215 20.6298 21.7303 18.6264L21.4656 18.1405C20.7683 16.8604 21.4298 15.2633 22.8281 14.8512L23.3588 14.6948C25.5471 14.0498 25.5471 10.9502 23.3588 10.3052L22.8281 10.1488C21.4298 9.73667 20.7683 8.13962 21.4656 6.8595L21.7303 6.37364C22.8215 4.37019 20.6298 2.17847 18.6264 3.26975L18.1405 3.5344C16.8604 4.23168 15.2633 3.57016 14.8512 2.17192L14.6948 1.64123ZM12.5 17.0763C15.0274 17.0763 17.0763 15.0274 17.0763 12.5C17.0763 9.9726 15.0274 7.92373 12.5 7.92373C9.97259 7.92373 7.92373 9.9726 7.92373 12.5C7.92373 15.0274 9.97259 17.0763 12.5 17.0763Z" fill="grey"/>
</svg>
