<svg width="25" height="23" viewBox="0 0 25 23" fill="none" xmlns="http://www.w3.org/2000/svg">
<path fill-rule="evenodd" clip-rule="evenodd" d="M17.1875 2.125C17.1875 1.26206 17.8871 0.5625 18.75 0.5625H21.875C22.7379 0.5625 23.4375 1.26206 23.4375 2.125V20.875H24.2188C24.6502 20.875 25 21.2248 25 21.6562C25 22.0877 24.6502 22.4375 24.2188 22.4375H0.78125C0.349778 22.4375 0 22.0877 0 21.6562C0 21.2248 0.349778 20.875 0.78125 20.875H1.5625V16.1875C1.5625 15.3246 2.26206 14.625 3.125 14.625H6.25C7.11295 14.625 7.8125 15.3246 7.8125 16.1875V20.875H9.375V9.9375C9.375 9.07456 10.0746 8.375 10.9375 8.375H14.0625C14.9254 8.375 15.625 9.07456 15.625 9.9375V20.875H17.1875V2.125Z" fill="grey"/>
</svg>
